<?xml version="1.0" standalone="no"?>
<svg xmlns:xlink="http://www.w3.org/1999/xlink" id="wave" style="transform:rotate(0deg); transition: 0.3s" viewBox="0 0 1440 140" version="1.1" xmlns="http://www.w3.org/2000/svg"><defs><linearGradient id="sw-gradient-0" x1="0" x2="0" y1="1" y2="0"><stop stop-color="rgba(219, 16, 39, 1)" offset="0%"/><stop stop-color="rgba(219, 16, 39, 1)" offset="100%"/></linearGradient></defs><path style="transform:translate(0, 0px); opacity:1" fill="url(#sw-gradient-0)" d="M0,28L48,23.3C96,19,192,9,288,21C384,33,480,65,576,81.7C672,98,768,98,864,88.7C960,79,1056,61,1152,63C1248,65,1344,89,1440,81.7C1536,75,1632,37,1728,21C1824,5,1920,9,2016,25.7C2112,42,2208,70,2304,81.7C2400,93,2496,89,2592,93.3C2688,98,2784,112,2880,105C2976,98,3072,70,3168,63C3264,56,3360,70,3456,79.3C3552,89,3648,93,3744,98C3840,103,3936,107,4032,102.7C4128,98,4224,84,4320,84C4416,84,4512,98,4608,91C4704,84,4800,56,4896,39.7C4992,23,5088,19,5184,35C5280,51,5376,89,5472,91C5568,93,5664,61,5760,44.3C5856,28,5952,28,6048,42C6144,56,6240,84,6336,84C6432,84,6528,56,6624,42C6720,28,6816,28,6864,28L6912,28L6912,140L6864,140C6816,140,6720,140,6624,140C6528,140,6432,140,6336,140C6240,140,6144,140,6048,140C5952,140,5856,140,5760,140C5664,140,5568,140,5472,140C5376,140,5280,140,5184,140C5088,140,4992,140,4896,140C4800,140,4704,140,4608,140C4512,140,4416,140,4320,140C4224,140,4128,140,4032,140C3936,140,3840,140,3744,140C3648,140,3552,140,3456,140C3360,140,3264,140,3168,140C3072,140,2976,140,2880,140C2784,140,2688,140,2592,140C2496,140,2400,140,2304,140C2208,140,2112,140,2016,140C1920,140,1824,140,1728,140C1632,140,1536,140,1440,140C1344,140,1248,140,1152,140C1056,140,960,140,864,140C768,140,672,140,576,140C480,140,384,140,288,140C192,140,96,140,48,140L0,140Z"/></svg>